<svg xmlns="http://www.w3.org/2000/svg"  viewBox="0 0 50 50" width="50px" height="50px"><path d="M 10.417969 5 L 2.0820312 22.949219 L 25 45 L 47.917969 22.949219 L 39.582031 5 L 10.417969 5 z M 11.693359 7 L 38.306641 7 L 45.501953 22.496094 L 25 42.224609 L 4.4980469 22.496094 L 11.693359 7 z M 12.957031 10.042969 L 13 16 L 22 16 L 22 19.490234 C 13.875 19.749234 10.417969 21.046969 10.417969 22.542969 C 10.417969 24.038969 15.449 25.694 22 26 L 22 37 L 28 37 L 28 26 C 34.551 25.694 39.582031 24.038969 39.582031 22.542969 C 39.582031 21.046969 36.125 19.874234 28 19.490234 L 28 16 L 37 16 L 36.957031 10.042969 L 12.957031 10.042969 z M 22 20.375 L 22 23 C 23 23.063 23.917 23.082031 25 23.082031 C 26.083 23.082031 27 23.062 28 23 L 28 20.5 C 33.389 20.76 37 21.158 37 22.25 C 37 23.545 31.903 24.625 25 24.625 C 18.097 24.625 13 23.67 13 22.375 C 13 21.283 16.611 20.635 22 20.375 z"/></svg>